{"title":"One Fine Day [1996] DvDRip XviD - CODY","uid":6346854,"size":734306332,"categoryP":"video","categoryS":"movies","magnet":"?xt=urn:btih:46b10553a73684c5cbeadf4373778a5282e483e9&amp;dn=One+Fine+Day+%5B1996%5D+DvDRip+XviD+-+CODY&amp;tr=udp%3A%2F%2Ftracker.openbittorrent.com%3A80&amp;tr=udp%3A%2F%2Fopen.demonii.com%3A1337&amp;tr=udp%3A%2F%2Ftracker.coppersurfer.tk%3A6969&amp;tr=udp%3A%2F%2Fexodus.desync.com%3A6969","seeders":15,"leechers":0,"uploader":"CODYBOSS1969","files":6,"time":1303863838,"description":"General\nComplete name                    : One.Fine.Day.1996.DvDRip.XviD - CODY.avi\nFormat                           : AVI\nFormat/Info                      : Audio Video Interleave\nFile size                        : 700 MiB\nDuration                         : 1h 44mn\nOverall bit rate                 : 935 Kbps\nWriting application              : VirtualDubMod 1.5.4.1 (build 2178/release)\nWriting library                  : VirtualDubMod build 2178/release\n\nVideo\nID                               : 0\nFormat                           : MPEG-4 Visual\nFormat profile                   : Advanced Simple@L5\nFormat settings, BVOP            : 1\nFormat settings, QPel            : No\nFormat settings, GMC             : No warppoints\nFormat settings, Matrix          : Custom\nCodec ID                         : XVID\nCodec ID/Hint                    : XviD\nDuration                         : 1h 44mn\nBit rate                         : 800 Kbps\nWidth                            : 720 pixels\nHeight                           : 400 pixels\nDisplay aspect ratio             : 16:9\nFrame rate                       : 25.000 fps\nColor space                      : YUV\nChroma subsampling               : 4:2:0\nBit depth                        : 8 bits\nScan type                        : Progressive\nCompression mode                 : Lossy\nBits/(Pixel*Frame)               : 0.111\nStream size                      : 598 MiB (86%)\nWriting library                  : XviD 63\n\nAudio\nID                               : 1\nFormat                           : MPEG Audio\nFormat version                   : Version 1\nFormat profile                   : Layer 3\nMode                             : Joint stereo\nMode extension                   : MS Stereo\nCodec ID                         : 55\nCodec ID/Hint                    : MP3\nDuration                         : 1h 44mn\nBit rate mode                    : Constant\nBit rate                         : 128 Kbps\nChannel(s)                       : 2 channels\nSampling rate                    : 48.0 KHz\nCompression mode                 : Lossy\nStream size                      : 95.8 MiB (14%)\nAlignment                        : Aligned on interleaves\nInterleave, duration             : 80 ms (2.00 video frames)\nInterleave, preload duration     : 504 ms\nWriting library                  : LAME3.98.2\nLanguage                         : English\n\n\n\n\nIMDB link:                       &lt;a href=&quot; http://www.imdb.com/title/tt0117247/&quot; rel=&quot;nofollow&quot; target=&quot;_NEW&quot;&gt; http://www.imdb.com/title/tt0117247/&lt;/a&gt;\n\n\nSubtitles included               : Romanian, English\n\n\n\nPlease seed at least 1,5:1 . This way this torrent has a chance to survive !!\n\n\n\nThanks. ENJOY !!!\n","torrent":{"xt":"urn:btih:46b10553a73684c5cbeadf4373778a5282e483e9","amp;dn":"One+Fine+Day+%5B1996%5D+DvDRip+XviD+-+CODY","amp;tr":["udp%3A%2F%2Ftracker.openbittorrent.com%3A80","udp%3A%2F%2Fopen.demonii.com%3A1337","udp%3A%2F%2Ftracker.coppersurfer.tk%3A6969","udp%3A%2F%2Fexodus.desync.com%3A6969"],"infoHash":"46b10553a73684c5cbeadf4373778a5282e483e9","infoHashBuffer":{"type":"Buffer","data":[70,177,5,83,167,54,132,197,203,234,223,67,115,119,138,82,130,228,131,233]},"announce":[],"urlList":[]}}